# xmcd
#
# Track frame offsets: 
#        150
#        28505
#        41407
#        57135
#        71350
#        92145
#        105260
#        118007
#        131605
#        144637
#        157695
#        175140
#        197892
#        205022
#        219097
#        239880
#        258292
#        270277
#
# Disc length: 3795 seconds
#
# Revision: 0
# Processed by: cddbd v1.4PL0 Copyright (c) Steve Scherf et al.
# Submitted via: ExactAudioCopy v0.90b4
#
DISCID=f10ed112
DTITLE=Fleetwood Mac - The Essential Blues Collection
DYEAR=2000
DGENRE=Blues
TTITLE0=Need Your Love So Bad
TTITLE1=Black Magic Woman
TTITLE2=Oh Well (Part 1)
TTITLE3=Albatross
TTITLE4=Green Manalishi
TTITLE5=I Loved Another Woman
TTITLE6=Stop Messin' Round
TTITLE7=I Believe My Time Aint Long
TTITLE8=Rollin' Man
TTITLE9=Dust My Broom
TTITLE10=If You Be My Baby
TTITLE11=Love That Burns
TTITLE12=Jigsaw Puzzle Blues
TTITLE13=Leaving Town Blues
TTITLE14=A Fool No More
TTITLE15=First Train Home
TTITLE16=Coming Home
TTITLE17=Shake Your Money Maker
EXTD=
EXTT0=
EXTT1=
EXTT2=
EXTT3=
EXTT4=
EXTT5=
EXTT6=
EXTT7=
EXTT8=
EXTT9=
EXTT10=
EXTT11=
EXTT12=
EXTT13=
EXTT14=
EXTT15=
EXTT16=
EXTT17=
PLAYORDER=
